<?xml version="1.0" encoding="UTF-8" standalone="no"?>
<svg width="30px" height="30px" viewBox="0 0 30 30" version="1.1" xmlns="http://www.w3.org/2000/svg" xmlns:xlink="http://www.w3.org/1999/xlink" xmlns:sketch="http://www.bohemiancoding.com/sketch/ns">
    <!-- Generator: Sketch 3.3.2 (12043) - http://www.bohemiancoding.com/sketch -->
    <title>ic-airtime</title>
    <desc>Created with Sketch.</desc>
    <defs></defs>
    <g id="Page-1" stroke="none" stroke-width="1" fill="none" fill-rule="evenodd" sketch:type="MSPage">
        <g id="ic-airtime" sketch:type="MSArtboardGroup">
            <g id="Oval-48-+-Group" sketch:type="MSLayerGroup" transform="translate(3.000000, 3.000000)"></g>
            <g id="Group" sketch:type="MSLayerGroup" transform="translate(5.000000, 5.000000)" fill="#8D52BA">
                <path d="M12.8024912,13.8197061 C12.4505614,13.4670307 11.9823158,13.2739167 11.4842456,13.2739167 C10.9861754,13.2739167 10.5186754,13.4670307 10.166,13.8197061 L9.8789386,14.1067675 C8.33551754,12.8146184 6.85323684,11.3323377 5.56257895,9.79040789 L5.84964035,9.50334649 C6.57661404,8.77637281 6.57661404,7.59382895 5.84964035,6.86685526 L4.26819298,5.28540789 C3.91626316,4.93347807 3.44801754,4.73961842 2.94994737,4.73961842 C2.45187719,4.73961842 1.98363158,4.93347807 1.63170175,5.28540789 L0.764552632,6.15330263 C-0.107815789,7.02492544 -0.2465,8.40580263 0.434991228,9.43698684 C2.98648246,13.2947939 6.37455263,16.682864 10.2331053,19.2358465 C10.6618333,19.5184342 11.1599035,19.6683026 11.672886,19.6683026 C12.3700351,19.6683026 13.0246842,19.3968991 13.5167895,18.9047939 L14.3846842,18.0368991 C15.1109123,17.3114167 15.1109123,16.1288728 14.3846842,15.4011535 L12.8024912,13.8197061 Z" id="Fill-295" sketch:type="MSShapeGroup"></path>
                <path d="M10,0.722201754 C9.79421053,0.722201754 9.62719298,0.889964912 9.62719298,1.09500877 C9.62719298,1.30079825 9.79421053,1.46781579 10,1.46781579 C14.5221491,1.46781579 18.2017544,5.14667544 18.2017544,9.66957018 C18.2017544,9.87535965 18.3687719,10.0423772 18.5745614,10.0423772 C18.7803509,10.0423772 18.9473684,9.87535965 18.9473684,9.66957018 C18.9473684,4.73658772 14.9337281,0.722201754 10,0.722201754" id="Fill-296" sketch:type="MSShapeGroup"></path>
                <path d="M10,4.45027193 C12.8780702,4.45027193 15.2192982,6.79224561 15.2192982,9.66957018 C15.2192982,9.87535965 15.3863158,10.0423772 15.5921053,10.0423772 C15.7978947,10.0423772 15.9649123,9.87535965 15.9649123,9.66957018 C15.9649123,6.38066667 13.2889035,3.70465789 10,3.70465789 C9.79421053,3.70465789 9.62719298,3.87242105 9.62719298,4.07746491 C9.62719298,4.28325439 9.79421053,4.45027193 10,4.45027193" id="Fill-297" sketch:type="MSShapeGroup"></path>
                <path d="M10,7.43272807 C11.2332456,7.43272807 12.2368421,8.43632456 12.2368421,9.66957018 C12.2368421,9.87535965 12.4038596,10.0423772 12.6096491,10.0423772 C12.8154386,10.0423772 12.9824561,9.87535965 12.9824561,9.66957018 C12.9824561,8.02549123 11.6448246,6.68711404 10,6.68711404 C9.79421053,6.68711404 9.62719298,6.85487719 9.62719298,7.05992105 C9.62719298,7.26571053 9.79421053,7.43272807 10,7.43272807" id="Fill-298" sketch:type="MSShapeGroup"></path>
            </g>
        </g>
    </g>
</svg>