<?xml version="1.0" encoding="UTF-8" standalone="no"?>
<svg width="30px" height="30px" viewBox="0 0 30 30" version="1.1" xmlns="http://www.w3.org/2000/svg" xmlns:xlink="http://www.w3.org/1999/xlink" xmlns:sketch="http://www.bohemiancoding.com/sketch/ns">
    <!-- Generator: Sketch 3.3.2 (12043) - http://www.bohemiancoding.com/sketch -->
    <title>ic-accounts</title>
    <desc>Created with Sketch.</desc>
    <defs></defs>
    <g id="Page-1" stroke="none" stroke-width="1" fill="none" fill-rule="evenodd" sketch:type="MSPage">
        <g id="ic-accounts" sketch:type="MSArtboardGroup" fill="#8D52BA">
            <g id="Oval-48-+-Group" sketch:type="MSLayerGroup">
                <g id="Group" transform="translate(5.000000, 5.000000)" sketch:type="MSShapeGroup">
                    <path d="M12.157824,11.117316 L12.756744,11.717076 C13.118784,11.252556 13.359864,10.692276 13.437144,10.079916 L12.587904,10.079916 C12.524064,10.461276 12.373704,10.814076 12.157824,11.117316" id="Fill-338"></path>
                    <path d="M12.157824,8.202684 C12.373704,8.505084 12.524064,8.857884 12.587904,9.240084 L13.437144,9.240084 C13.359864,8.626884 13.118784,8.067444 12.757584,7.602924 L12.157824,8.202684 Z" id="Fill-339"></path>
                    <path d="M13.083168,12.61848 C13.079808,12.62184 13.078968,12.62688 13.075608,12.63024 C13.072248,12.6336 13.067208,12.6336 13.063848,12.6378 C12.304488,13.39212 11.258688,13.86 10.106208,13.86 C8.952048,13.86 7.906248,13.39128 7.146888,12.63612 C7.143528,12.6336 7.139328,12.6336 7.135968,12.6294 C7.132608,12.62604 7.131768,12.62184 7.129248,12.61932 C6.374088,11.85996 5.906208,10.81332 5.906208,9.66 C5.906208,8.50584 6.374088,7.4592 7.130088,6.69984 C7.132608,6.69732 7.133448,6.69396 7.136808,6.68976 C7.139328,6.6864 7.143528,6.6864 7.146888,6.68388 C7.906248,5.92788 8.952048,5.46 10.106208,5.46 C11.260368,5.46 12.307848,5.92872 13.067208,6.68556 C13.069728,6.68724 13.073088,6.68808 13.075608,6.6906 C13.077288,6.69396 13.078128,6.69564 13.080648,6.69816 C13.837488,7.45836 14.306208,8.505 14.306208,9.66 C14.306208,10.81332 13.837488,11.85912 13.083168,12.61848 M15.566208,3.36 L4.646208,3.36 C3.951528,3.36 3.386208,3.92448 3.386208,4.62 L3.386208,5.04 L3.806208,5.04 C4.037208,5.04 4.226208,5.22816 4.226208,5.46 L4.226208,7.98 C4.226208,8.211 4.037208,8.4 3.806208,8.4 L3.386208,8.4 L3.386208,10.92 L3.806208,10.92 C4.037208,10.92 4.226208,11.10816 4.226208,11.34 L4.226208,13.86 C4.226208,14.091 4.037208,14.28 3.806208,14.28 L3.386208,14.28 L3.386208,14.7 C3.386208,15.39468 3.951528,15.96 4.646208,15.96 L15.566208,15.96 C16.260048,15.96 16.826208,15.39468 16.826208,14.7 L16.826208,4.62 C16.826208,3.92448 16.260048,3.36 15.566208,3.36" id="Fill-340"></path>
                    <path d="M7.624008,10.08 L6.774768,10.08 C6.852048,10.69152 7.093968,11.25264 7.455168,11.71632 L8.054088,11.1174 C7.838208,10.81416 7.687848,10.46136 7.624008,10.08" id="Fill-341"></path>
                    <path d="M9.686208,7.177716 L9.686208,6.329316 C9.073848,6.405756 8.513568,6.647676 8.049048,7.008876 L8.648808,7.608636 C8.951208,7.391916 9.304008,7.242396 9.686208,7.177716" id="Fill-342"></path>
                    <path d="M3.38604,11.76 L2.54604,11.76 L2.54604,13.44 L3.38604,13.44 L3.38604,11.76 Z" id="Fill-343"></path>
                    <path d="M12.16278,7.008708 C11.69826,6.647508 11.13798,6.405588 10.52646,6.329148 L10.52646,7.177548 C10.90782,7.242228 11.26062,7.392588 11.56386,7.608468 L12.16278,7.008708 Z" id="Fill-344"></path>
                    <path d="M10.526208,12.141444 L10.526208,12.990684 C11.138568,12.913404 11.698848,12.672324 12.162528,12.311124 L11.563608,11.711364 C11.260368,11.928084 10.907568,12.077604 10.526208,12.141444" id="Fill-345"></path>
                    <path d="M8.04888,12.311208 C8.5134,12.672408 9.07368,12.913488 9.68604,12.990768 L9.68604,12.141528 C9.30384,12.077688 8.95104,11.928168 8.64864,11.711448 L8.04888,12.311208 Z" id="Fill-346"></path>
                    <path d="M11.786208,9.66 C11.786208,8.73432 11.032728,7.98 10.106208,7.98 C9.178848,7.98 8.426208,8.73432 8.426208,9.66 C8.426208,10.58652 9.178848,11.34 10.106208,11.34 C11.032728,11.34 11.786208,10.58652 11.786208,9.66" id="Fill-347"></path>
                    <path d="M8.053836,8.201508 L7.454916,7.602588 C7.093716,8.067108 6.851796,8.627388 6.775356,9.239748 L7.623756,9.239748 C7.687596,8.857548 7.837956,8.504748 8.053836,8.201508" id="Fill-348"></path>
                    <path d="M3.38604,5.88 L2.54604,5.88 L2.54604,7.56 L3.38604,7.56 L3.38604,5.88 Z" id="Fill-349"></path>
                    <path d="M15.566208,16.8 L4.646208,16.8 C3.487848,16.8 2.546208,15.85752 2.546208,14.7 L2.546208,14.28 L2.126208,14.28 C1.894368,14.28 1.706208,14.091 1.706208,13.86 L1.706208,11.34 C1.706208,11.10816 1.894368,10.92 2.126208,10.92 L2.546208,10.92 L2.546208,8.4 L2.126208,8.4 C1.894368,8.4 1.706208,8.211 1.706208,7.98 L1.706208,5.46 C1.706208,5.22816 1.894368,5.04 2.126208,5.04 L2.546208,5.04 L2.546208,4.62 C2.546208,3.46164 3.487848,2.52 4.646208,2.52 L15.566208,2.52 C16.723728,2.52 17.666208,3.46164 17.666208,4.62 L17.666208,14.7 C17.666208,15.85752 16.723728,16.8 15.566208,16.8 M18.086208,0 L2.126208,0 C0.967848,0 0.026208,0.94164 0.026208,2.1 L0.026208,17.22 C0.026208,18.23388 0.747768,19.08228 1.706208,19.27716 L1.706208,19.74 C1.706208,19.971 1.894368,20.16 2.126208,20.16 C2.357208,20.16 2.546208,19.971 2.546208,19.74 L2.546208,19.32 L17.666208,19.32 L17.666208,19.74 C17.666208,19.971 17.854368,20.16 18.086208,20.16 C18.317208,20.16 18.506208,19.971 18.506208,19.74 L18.506208,19.27716 C19.463808,19.08228 20.186208,18.23388 20.186208,17.22 L20.186208,2.1 C20.186208,0.94164 19.243728,0 18.086208,0" id="Fill-350"></path>
                </g>
            </g>
        </g>
    </g>
</svg>