<?xml version="1.0" encoding="UTF-8" standalone="no"?>
<svg width="30px" height="30px" viewBox="0 0 30 30" version="1.1" xmlns="http://www.w3.org/2000/svg" xmlns:xlink="http://www.w3.org/1999/xlink" xmlns:sketch="http://www.bohemiancoding.com/sketch/ns">
    <!-- Generator: Sketch 3.3.2 (12043) - http://www.bohemiancoding.com/sketch -->
    <title>ic-cards</title>
    <desc>Created with Sketch.</desc>
    <defs></defs>
    <g id="Page-1" stroke="none" stroke-width="1" fill="none" fill-rule="evenodd" sketch:type="MSPage">
        <g id="ic-cards" sketch:type="MSArtboardGroup" fill="#8D52BA">
            <g id="Oval-48-+-Group" sketch:type="MSLayerGroup">
                <g id="Fill-183-+-Fill-184" transform="translate(5.000000, 8.000000)" sketch:type="MSShapeGroup">
                    <path d="M17.9166667,0 L2.08333333,0 C0.934166667,0 0,0.935 0,2.08333333 L0,3.33333333 L20,3.33333333 L20,2.08333333 C20,0.935 19.065,0 17.9166667,0" id="Fill-183"></path>
                    <path d="M2.91666667,7.50041667 L5.41666667,7.50041667 C5.64583333,7.50041667 5.83333333,7.68708333 5.83333333,7.91708333 C5.83333333,8.14708333 5.64583333,8.33375 5.41666667,8.33375 L2.91666667,8.33375 C2.68666667,8.33375 2.5,8.14708333 2.5,7.91708333 C2.5,7.68708333 2.68666667,7.50041667 2.91666667,7.50041667 L2.91666667,7.50041667 Z M2.91666667,5.83375 L9.58333333,5.83375 C9.8125,5.83375 10,6.02041667 10,6.25041667 C10,6.48041667 9.8125,6.66708333 9.58333333,6.66708333 L2.91666667,6.66708333 C2.68666667,6.66708333 2.5,6.48041667 2.5,6.25041667 C2.5,6.02041667 2.68666667,5.83375 2.91666667,5.83375 L2.91666667,5.83375 Z M14.5833333,5.83375 L17.0833333,5.83375 C17.3125,5.83375 17.5,6.02041667 17.5,6.25041667 C17.5,6.48041667 17.3125,6.66708333 17.0833333,6.66708333 L14.5833333,6.66708333 C14.3533333,6.66708333 14.1666667,6.48041667 14.1666667,6.25041667 C14.1666667,6.02041667 14.3533333,5.83375 14.5833333,5.83375 L14.5833333,5.83375 Z M0,11.2723465 C0,12.5778202 0.934166667,13.6407675 2.08333333,13.6407675 L17.9166667,13.6407675 C19.065,13.6407675 20,12.5778202 20,11.2723465 L20,4.16708333 L0,4.16708333 L0,11.2723465 Z" id="Fill-184"></path>
                </g>
            </g>
        </g>
    </g>
</svg>