<?xml version="1.0" encoding="UTF-8" standalone="no"?>
<svg width="30px" height="30px" viewBox="0 0 30 30" version="1.1" xmlns="http://www.w3.org/2000/svg" xmlns:xlink="http://www.w3.org/1999/xlink" xmlns:sketch="http://www.bohemiancoding.com/sketch/ns">
    <!-- Generator: Sketch 3.3.2 (12043) - http://www.bohemiancoding.com/sketch -->
    <title>ic-dashboard</title>
    <desc>Created with Sketch.</desc>
    <defs></defs>
    <g id="Page-1" stroke="none" stroke-width="1" fill="none" fill-rule="evenodd" sketch:type="MSPage">
        <g id="ic-dashboard" sketch:type="MSArtboardGroup" fill="#8D52BA">
            <g sketch:type="MSLayerGroup" id="Group">
                <g transform="translate(5.000000, 6.000000)" sketch:type="MSShapeGroup">
                    <path d="M19.5833333,0 L7.08333333,0 C6.85333333,0 6.66666667,0.186666667 6.66666667,0.416666667 L6.66666667,4.58333333 C6.66666667,4.81333333 6.85333333,5 7.08333333,5 L19.5833333,5 C19.8125,5 20,4.81333333 20,4.58333333 L20,0.416666667 C20,0.186666667 19.8125,0 19.5833333,0" id="Fill-443"></path>
                    <path d="M19.5833333,6.66666667 L7.08333333,6.66666667 C6.85333333,6.66666667 6.66666667,6.85333333 6.66666667,7.08333333 L6.66666667,11.25 C6.66666667,11.48 6.85333333,11.6666667 7.08333333,11.6666667 L19.5833333,11.6666667 C19.8125,11.6666667 20,11.48 20,11.25 L20,7.08333333 C20,6.85333333 19.8125,6.66666667 19.5833333,6.66666667" id="Fill-444"></path>
                    <path d="M19.5833333,13.3333333 L7.08333333,13.3333333 C6.85333333,13.3333333 6.66666667,13.52 6.66666667,13.75 L6.66666667,17.9166667 C6.66666667,18.1466667 6.85333333,18.3333333 7.08333333,18.3333333 L19.5833333,18.3333333 C19.8125,18.3333333 20,18.1466667 20,17.9166667 L20,13.75 C20,13.52 19.8125,13.3333333 19.5833333,13.3333333" id="Fill-445"></path>
                    <path d="M4.58333333,0 L0.416666667,0 C0.186666667,0 0,0.186666667 0,0.416666667 L0,4.58333333 C0,4.81333333 0.186666667,5 0.416666667,5 L4.58333333,5 C4.8125,5 5,4.81333333 5,4.58333333 L5,0.416666667 C5,0.186666667 4.8125,0 4.58333333,0" id="Fill-446"></path>
                    <path d="M4.58333333,6.66666667 L0.416666667,6.66666667 C0.186666667,6.66666667 0,6.85333333 0,7.08333333 L0,11.25 C0,11.48 0.186666667,11.6666667 0.416666667,11.6666667 L4.58333333,11.6666667 C4.8125,11.6666667 5,11.48 5,11.25 L5,7.08333333 C5,6.85333333 4.8125,6.66666667 4.58333333,6.66666667" id="Fill-447"></path>
                    <path d="M4.58333333,13.3333333 L0.416666667,13.3333333 C0.186666667,13.3333333 0,13.52 0,13.75 L0,17.9166667 C0,18.1466667 0.186666667,18.3333333 0.416666667,18.3333333 L4.58333333,18.3333333 C4.8125,18.3333333 5,18.1466667 5,17.9166667 L5,13.75 C5,13.52 4.8125,13.3333333 4.58333333,13.3333333" id="Fill-448"></path>
                </g>
            </g>
        </g>
    </g>
</svg>