<?xml version="1.0" encoding="UTF-8" standalone="no"?>
<svg width="30px" height="30px" viewBox="0 0 30 30" version="1.1" xmlns="http://www.w3.org/2000/svg" xmlns:xlink="http://www.w3.org/1999/xlink" xmlns:sketch="http://www.bohemiancoding.com/sketch/ns">
    <!-- Generator: Sketch 3.3.2 (12043) - http://www.bohemiancoding.com/sketch -->
    <title>ic-payments</title>
    <desc>Created with Sketch.</desc>
    <defs></defs>
    <g id="Page-1" stroke="none" stroke-width="1" fill="none" fill-rule="evenodd" sketch:type="MSPage">
        <g id="ic-payments" sketch:type="MSArtboardGroup" fill="#8D52BA">
            <g id="Oval-48-+-Group" sketch:type="MSLayerGroup">
                <g id="Fill-295-+-Fill-296" transform="translate(6.000000, 7.000000)" sketch:type="MSShapeGroup">
                    <path d="M12.75,10.5 L5.25,10.5 C5.0775,10.5 4.89525,10.25925 4.878,9.81675 C4.4505,10.2105 3.94425,10.5 3.375,10.5 C3.168,10.5 3,10.33125 3,10.125 C3,9.918 3.168,9.75 3.375,9.75 C4.4025,9.75 5.36925,8.019 5.655,7.35225 C5.71425,7.21425 5.85,7.125 6,7.125 L7.125,7.125 C8.45025,7.125 9,6.14775 9,5.625 L9,5.25 C9,4.72725 8.45025,3.75 7.125,3.75 L4.875,3.75 L3.75,3.75 L3.75,3.8745 C2.26425,4.19325 0,5.304 0,9.12375 L0,11.625 C0,13.899 1.85025,15.75 4.125,15.75 L9.75,15.75 C10.57725,15.75 11.25,15.07725 11.25,14.25 C11.25,13.977 11.1765,13.7205 11.04825,13.5 L12.75,13.5 C13.57725,13.5 14.25,12.82725 14.25,12 C14.25,11.17275 13.57725,10.5 12.75,10.5" id="Fill-295"></path>
                    <path d="M13.875,4.5 L16.125,4.5 C16.332,4.5 16.5,4.668 16.5,4.875 C16.5,5.08125 16.332,5.25 16.125,5.25 L13.875,5.25 C13.668,5.25 13.5,5.08125 13.5,4.875 C13.5,4.668 13.668,4.5 13.875,4.5 M9.75,3 L18,3 L18,1.5 C18,0.67275 17.32725,0 16.5,0 L5.25,0 C4.422,0 3.75,0.67275 3.75,1.5 L3.75,3 L7.125,3 C8.83725,3 9.75,4.3065 9.75,5.25 L9.75,5.625 C9.75,6.56775 8.83725,7.875 7.125,7.875 L6.24075,7.875 C6.04425,8.2845 5.60175,9.1065 4.977,9.72225 C5.0655,9.73875 5.15625,9.75 5.25,9.75 L16.5,9.75 C17.32725,9.75 18,9.07725 18,8.25 L18,3.75 L9.75,3.75 C9.543,3.75 9.375,3.58125 9.375,3.375 C9.375,3.168 9.543,3 9.75,3" id="Fill-296"></path>
                </g>
            </g>
        </g>
    </g>
</svg>