<?xml version="1.0" encoding="UTF-8" standalone="no"?>
<svg width="30px" height="30px" viewBox="0 0 30 30" version="1.1" xmlns="http://www.w3.org/2000/svg" xmlns:xlink="http://www.w3.org/1999/xlink" xmlns:sketch="http://www.bohemiancoding.com/sketch/ns">
    <!-- Generator: Sketch 3.3.2 (12043) - http://www.bohemiancoding.com/sketch -->
    <title>ic-transfers</title>
    <desc>Created with Sketch.</desc>
    <defs></defs>
    <g id="Page-1" stroke="none" stroke-width="1" fill="none" fill-rule="evenodd" sketch:type="MSPage">
        <g id="ic-transfers" sketch:type="MSArtboardGroup" fill="#8D52BA">
            <g id="Fill-451-+-Fill-452" sketch:type="MSLayerGroup" transform="translate(5.000000, 9.000000)">
                <path d="M2.84508333,5.83333333 L12.0834167,5.83333333 C12.5434167,5.83333333 12.91675,5.46 12.91675,5 C12.91675,4.53916667 12.5434167,4.16666667 12.0834167,4.16666667 L2.84508333,4.16666667 L4.75591667,2.25583333 C5.08175,1.93 5.08175,1.40333333 4.75591667,1.0775 C4.43008333,0.751666667 3.90175,0.751666667 3.57758333,1.0775 L0.24425,4.41 C-0.0815833333,4.73583333 -0.0774166667,5.26833333 0.24425,5.58916667 L3.57758333,8.9225 C3.74008333,9.085 3.95341667,9.16666667 4.16675,9.16666667 C4.38008333,9.16666667 4.59341667,9.085 4.75591667,8.9225 C5.08175,8.59666667 5.08175,8.07 4.75591667,7.74416667 L2.84508333,5.83333333 Z" id="Fill-451" sketch:type="MSShapeGroup"></path>
                <path d="M19.7550833,7.74333333 L16.4225833,4.41083333 C16.09675,4.085 15.56925,4.085 15.24425,4.41083333 C14.9184167,4.73666667 14.9184167,5.26333333 15.24425,5.58916667 L17.1550833,7.5 L7.91675,7.5 C7.45591667,7.5 7.08341667,7.8725 7.08341667,8.33333333 C7.08341667,8.79333333 7.45591667,9.16666667 7.91675,9.16666667 L17.1550833,9.16666667 L15.24425,11.0775 C14.9184167,11.4033333 14.9184167,11.93 15.24425,12.2558333 C15.40675,12.4183333 15.6200833,12.5 15.8334167,12.5 C16.04675,12.5 16.2600833,12.4183333 16.4225833,12.2558333 L19.7550833,8.9225 C20.07675,8.60083333 20.0809167,8.07 19.7550833,7.74333333" id="Fill-452" sketch:type="MSShapeGroup"></path>
            </g>
        </g>
    </g>
</svg>